<svg width="508" height="507" viewBox="0 0 508 507" fill="none" xmlns="http://www.w3.org/2000/svg">
<path d="M220.707 366.646C220.707 366.646 174.824 366.646 159.783 366.646C144.742 366.646 141.869 370.195 148.206 372.814C154.544 375.434 124.208 374.166 119.054 378.814C113.815 383.461 127.166 385.236 141.615 385.236C156.065 385.236 246.142 385.236 257.718 385.236C269.295 385.236 266.422 376.786 259.493 375.687C252.564 374.589 270.731 376.11 277.66 373.659C284.589 371.209 279.604 366.646 220.707 366.646Z" fill="#99ADF9"/>
<path d="M309.601 382.109C307.827 384.56 301.912 385.151 291.856 384.898C284.251 384.644 276.308 384.053 276.308 380.504C276.308 376.955 295.659 377.377 302.419 378.138C308.249 378.814 310.615 380.673 309.601 382.109Z" fill="#C5D3FF"/>
<path d="M134.517 370.279C133.334 372.053 129.278 372.56 122.18 372.56C116.856 372.56 111.279 372.307 111.11 369.856C110.941 367.321 124.546 367.237 129.362 367.659C133.418 367.997 135.193 369.18 134.517 370.279Z" fill="#C5D3FF"/>
<path d="M432.041 364.533H401.875C399.509 364.533 397.565 362.589 397.565 360.223V329.043C397.565 326.677 399.509 324.733 401.875 324.733H432.041C434.407 324.733 436.351 326.677 436.351 329.043V360.223C436.351 362.589 434.407 364.533 432.041 364.533Z" fill="#C5DFFF"/>
<path d="M430.605 363.096H401.621C399.34 363.096 397.481 361.237 397.481 358.956V328.874C397.481 326.592 399.34 324.733 401.621 324.733H430.605C432.886 324.733 434.745 326.592 434.745 328.874V358.956C434.745 361.237 432.886 363.096 430.605 363.096Z" fill="#E1ECFF"/>
<path d="M416.409 356.421C423.129 356.421 428.577 350.973 428.577 344.253C428.577 337.533 423.129 332.085 416.409 332.085C409.689 332.085 404.241 337.533 404.241 344.253C404.241 350.973 409.689 356.421 416.409 356.421Z" fill="#C5DFFF"/>
<path d="M411.593 349.745C411.17 349.745 410.832 349.407 410.832 348.985V339.605C410.832 339.183 411.17 338.845 411.593 338.845C412.015 338.845 412.353 339.183 412.353 339.605V348.985C412.353 349.407 412.015 349.745 411.593 349.745Z" fill="#1C3177"/>
<path d="M420.381 349.745C419.958 349.745 419.62 349.407 419.62 348.985V339.605C419.62 339.183 419.958 338.845 420.381 338.845C420.803 338.845 421.141 339.183 421.141 339.605V348.985C421.141 349.407 420.803 349.745 420.381 349.745Z" fill="#1C3177"/>
<path d="M342.725 311.805C342.133 311.805 341.542 311.805 340.95 311.72C327.853 310.791 318.896 306.312 303.855 283.413C298.616 275.47 295.067 267.358 291.602 259.499C285.687 246.064 280.617 234.403 269.125 228.995C251.465 220.714 234.142 234.403 233.973 234.572C233.213 235.163 232.114 235.079 231.523 234.318C230.931 233.558 231.016 232.459 231.776 231.868C232.537 231.276 250.958 216.658 270.562 225.868C283.237 231.783 288.814 244.543 294.729 258.063C298.109 265.837 301.658 273.864 306.728 281.469C321.008 303.101 329.205 307.326 341.204 308.256C350.161 308.932 354.977 303.524 359.625 298.2C361.315 296.341 362.836 294.567 364.61 293.046C371.455 287.215 378.637 286.117 378.975 286.117C379.905 285.948 380.834 286.624 380.919 287.553C381.088 288.483 380.412 289.412 379.482 289.497C379.398 289.497 372.976 290.511 366.892 295.665C365.286 297.017 363.85 298.707 362.244 300.482C357.512 305.89 352.273 311.805 342.725 311.805Z" fill="#1C3177"/>
<path d="M391.904 280.286L399.002 274.287C399.762 273.695 400.776 273.78 401.368 274.54C401.875 275.216 401.79 276.146 401.114 276.737L393.932 283.075L391.904 280.286Z" fill="#1C3177"/>
<path d="M387.51 275.216L394.608 269.217C395.368 268.625 396.382 268.71 396.974 269.47C397.481 270.146 397.396 271.076 396.72 271.667L389.538 278.005L387.51 275.216Z" fill="#1C3177"/>
<path d="M396.889 283.413C396.889 283.413 394.101 286.708 389.791 290.511C385.482 294.229 379.905 293.553 377.37 290.68C377.201 290.511 377.116 290.342 376.947 290.173C374.75 287.131 374.666 282.99 377.961 280.033C381.426 276.822 387.172 272.259 387.172 272.259L394.101 280.286L396.889 283.413Z" fill="#E1ECFF"/>
<path d="M396.889 283.413C396.889 283.413 394.101 286.708 389.791 290.511C385.482 294.229 379.905 293.553 377.37 290.68C377.201 290.511 377.116 290.342 376.947 290.173C378.975 290.173 382.44 289.75 385.566 287.638C388.186 285.863 391.566 282.737 394.016 280.286L396.889 283.413Z" fill="#C5DFFF"/>
<path d="M267.605 348.14C267.52 348.14 267.351 348.14 267.267 348.14C261.521 348.056 246.564 336.817 242.762 331.578C238.875 326.339 235.41 319.664 240.142 315.354C241.072 314.509 242.424 313.918 243.945 313.664C246.226 313.242 249.015 313.749 251.381 315.27C255.437 317.889 266.844 331.156 270.055 336.817C273.182 342.394 273.097 348.056 267.605 348.14Z" fill="#1C3177"/>
<path d="M267.605 348.14C268.45 347.633 269.041 346.788 269.548 345.098C270.393 342.141 267.436 336.226 257.718 324.903C251.888 318.058 246.902 315.016 243.945 313.664C246.226 313.242 249.015 313.749 251.381 315.27C255.437 317.889 266.844 331.156 270.055 336.817C273.182 342.394 273.097 348.056 267.605 348.14Z" fill="#384D89"/>
<path d="M239.043 318.988C239.888 316.622 244.789 317.044 249.014 321.185C253.239 325.325 259.661 333.522 258.056 337.071C256.45 340.62 250.366 337.747 245.381 332.846C240.395 327.945 237.691 322.79 239.043 318.988Z" fill="#142966"/>
<path d="M249.69 329.55C249.521 332.254 248.507 333.944 248.507 333.944C248.507 333.944 225.777 344.76 197.3 324.903C168.317 304.707 168.232 279.526 168.232 279.273C183.104 264.739 199.835 280.709 199.835 280.709C199.835 280.709 200.849 289.751 205.412 298.877C208.032 304.116 211.834 309.439 217.242 312.988C230.762 321.861 244.789 319.157 244.789 319.157C244.789 319.157 247.493 320.002 249.099 325.156C249.69 326.677 249.859 328.283 249.69 329.55Z" fill="#E1ECFF"/>
<path d="M249.69 329.55C249.521 332.254 248.507 333.944 248.507 333.944C248.507 333.944 225.777 344.76 197.3 324.903C168.317 304.707 168.232 279.526 168.232 279.273C183.104 264.739 199.835 280.709 199.835 280.709C199.835 280.709 200.849 289.751 205.412 298.877C203.131 300.567 200.258 302.341 198.061 303.017C193.413 304.369 188.428 304.369 188.428 304.369C188.428 304.369 202.708 325.748 223.833 329.635C235.241 331.578 244.029 330.733 249.69 329.55Z" fill="#C5DFFF"/>
<path d="M217.834 333.86C217.412 333.86 216.989 333.606 216.82 333.099C216.567 332.508 216.905 331.916 217.496 331.663C217.581 331.663 222.144 329.888 223.496 326.17C224.932 322.368 223.749 319.326 223.749 319.326C223.496 318.734 223.834 318.143 224.341 317.889C224.932 317.636 225.524 317.974 225.777 318.481C225.862 318.65 227.214 322.368 225.524 326.931C223.749 331.663 218.426 333.606 218.172 333.691C218.088 333.86 217.919 333.86 217.834 333.86Z" fill="#C5DFFF"/>
<path d="M198.23 325.156C197.638 325.156 197.131 324.734 197.131 324.142C197.131 323.551 197.554 323.044 198.145 322.959C198.23 322.959 204.145 322.537 207.102 318.65C210.06 314.763 209.891 310.791 209.891 310.707C209.806 310.115 210.313 309.524 210.905 309.524C211.496 309.439 212.088 309.946 212.088 310.538C212.088 310.707 212.426 315.354 208.877 320.002C205.243 324.649 198.568 325.072 198.23 325.156Z" fill="#C5DFFF"/>
<path d="M158.177 309.186C157.839 309.946 157.416 310.707 156.825 311.467C155.726 312.904 154.459 313.749 153.276 314.34C151.586 315.185 150.234 315.354 150.234 315.354C150.234 315.354 138.319 303.778 127.926 283.16C117.532 262.626 116.772 238.966 116.772 238.966C117.701 238.459 118.631 238.037 119.476 237.699C122.687 236.431 125.644 236.347 128.095 236.685C131.813 237.192 134.179 238.797 134.179 238.797C134.179 238.797 134.855 258.401 141.784 276.062C148.713 293.807 158.853 304.285 158.853 304.285C158.853 304.285 159.275 306.566 158.177 309.186Z" fill="#E1ECFF"/>
<path d="M158.177 309.186C154.459 305.89 147.361 298.37 140.517 283.836C132.32 266.429 129.025 244.036 128.18 236.685C131.898 237.192 134.264 238.797 134.264 238.797C134.264 238.797 134.94 258.401 141.869 276.062C148.798 293.807 158.938 304.285 158.938 304.285C158.938 304.285 159.276 306.566 158.177 309.186Z" fill="#F8FBFF"/>
<path d="M153.276 314.34C151.586 315.185 150.234 315.354 150.234 315.354C150.234 315.354 138.319 303.778 127.926 283.16C117.532 262.626 116.772 238.966 116.772 238.966C117.701 238.459 118.631 238.036 119.476 237.698C120.067 245.303 122.856 270.316 134.686 289.92C142.798 303.271 149.304 310.538 153.276 314.34Z" fill="#C5DFFF"/>
<path d="M176.851 326.508C176.851 326.508 172.457 329.128 167.303 327.945C162.148 326.762 160.205 325.072 160.205 325.072C160.205 325.072 158.515 322.536 159.782 321.1C159.867 321.015 159.867 321.015 159.951 320.931C161.557 319.494 163.754 319.241 163.754 319.241C163.754 319.241 166.796 321.607 168.993 322.367C171.19 323.128 175.077 322.368 176.513 323.297C177.189 323.72 177.274 324.48 177.189 325.156C177.189 325.917 176.851 326.508 176.851 326.508Z" fill="#E1ECFF"/>
<path d="M176.851 326.508C176.851 326.508 172.457 329.128 167.303 327.945C162.148 326.762 160.205 325.072 160.205 325.072C160.205 325.072 158.515 322.537 159.782 321.1C161.303 322.537 164.937 325.663 169.162 326.17C172.626 326.593 175.499 325.832 177.189 325.156C177.189 325.917 176.851 326.508 176.851 326.508Z" fill="#C5DFFF"/>
<path d="M175.245 324.142C170.851 324.818 167.725 323.635 165.359 322.368C162.993 321.1 162.063 319.495 162.063 319.495C162.063 319.495 162.063 317.551 163.331 316.537C164.007 315.946 165.105 315.692 166.795 316.199C166.795 316.199 170.091 319.072 175.583 317.129C181.076 315.185 180.738 314.002 181.921 313.664C182.766 313.411 183.864 314.678 184.118 316.115C184.287 316.791 184.202 317.467 183.949 318.058C183.019 319.917 179.639 323.382 175.245 324.142Z" fill="#E1ECFF"/>
<path d="M175.245 324.142C170.851 324.818 167.725 323.635 165.359 322.368C162.993 321.1 162.063 319.495 162.063 319.495C162.063 319.495 162.063 317.551 163.331 316.537C165.359 318.565 169.753 322.199 174.569 321.269C179.301 320.34 182.681 317.551 184.202 316.115C184.371 316.791 184.287 317.466 184.033 318.058C183.019 319.917 179.639 323.382 175.245 324.142Z" fill="#C5DFFF"/>
<path d="M174.316 318.565C170.091 319.241 167.134 318.058 164.937 316.875C162.655 315.692 161.81 314.171 161.81 314.171C161.81 314.171 161.81 312.312 162.993 311.298C163.669 310.707 164.683 310.453 166.289 310.96C166.289 310.96 169.415 313.664 174.654 311.805C179.893 309.946 179.555 308.848 180.654 308.51C181.414 308.256 182.513 309.524 182.766 310.876C182.935 311.467 182.851 312.143 182.597 312.735C181.668 314.594 178.457 317.889 174.316 318.565Z" fill="#E1ECFF"/>
<path d="M174.316 318.565C170.091 319.241 167.134 318.058 164.937 316.875C162.655 315.692 161.81 314.171 161.81 314.171C161.81 314.171 161.81 312.312 162.993 311.298C164.852 313.242 169.077 316.706 173.64 315.777C178.119 314.847 181.33 312.228 182.766 310.876C182.935 311.467 182.851 312.143 182.597 312.735C181.668 314.594 178.457 317.889 174.316 318.565Z" fill="#C5DFFF"/>
<path d="M173.725 314.34C170.091 315.523 167.218 314.931 165.106 314.171C162.909 313.41 161.979 312.227 161.979 312.227C161.979 312.227 161.726 310.537 162.74 309.523C163.247 308.932 164.176 308.594 165.697 308.763C165.697 308.763 168.824 310.706 173.302 308.425C177.781 306.059 177.358 305.129 178.288 304.622C178.964 304.284 180.062 305.214 180.485 306.397C180.654 306.904 180.738 307.495 180.569 308.087C179.893 309.777 177.358 313.157 173.725 314.34Z" fill="#E1ECFF"/>
<path d="M173.725 314.34C170.091 315.523 167.218 314.931 165.106 314.171C162.909 313.41 161.979 312.227 161.979 312.227C161.979 312.227 161.726 310.537 162.74 309.523C164.683 310.96 168.824 313.495 172.795 312.058C176.767 310.622 179.302 307.833 180.4 306.397C180.569 306.904 180.654 307.495 180.485 308.087C179.893 309.777 177.358 313.157 173.725 314.34Z" fill="#C5DFFF"/>
<path d="M170.767 310.284C170.767 310.284 170.514 311.721 169.922 313.664C169.246 315.861 168.232 318.565 166.711 320.678C166.035 321.523 165.359 322.283 164.683 322.875C162.402 324.987 160.289 325.41 160.289 325.41C160.289 325.41 153.783 319.157 151.924 317.044C150.065 315.016 148.544 312.819 148.544 312.819C148.544 312.819 148.037 310.453 148.544 307.918C148.797 306.566 149.304 305.13 150.318 304.031C150.825 303.524 151.417 303.102 151.924 302.764C154.712 301.327 157.923 302.426 157.923 302.426C157.923 302.426 164.176 306.313 166.965 307.834C169.753 309.355 170.767 310.284 170.767 310.284Z" fill="#E1ECFF"/>
<path d="M170.767 310.284C170.767 310.284 170.514 311.721 169.922 313.664C168.655 312.988 166.373 311.552 163.331 309.355C159.36 306.566 153.698 303.693 151.924 302.764C154.712 301.327 157.923 302.426 157.923 302.426C157.923 302.426 164.176 306.313 166.965 307.834C169.753 309.355 170.767 310.284 170.767 310.284Z" fill="#F8FBFF"/>
<path d="M164.683 322.79C162.402 324.818 160.289 325.325 160.289 325.325C160.289 325.325 153.783 318.987 151.924 316.959C150.065 314.932 148.544 312.735 148.544 312.735C148.544 312.735 148.037 310.368 148.544 307.833C151.163 310.791 158.177 318.396 163.078 321.607C163.669 322.114 164.261 322.452 164.683 322.79Z" fill="#C5DFFF"/>
<path d="M140.516 301.158C139.249 301.074 138.488 300.651 138.404 300.651C137.897 300.398 137.728 299.722 137.981 299.215C138.235 298.708 138.826 298.454 139.333 298.708C139.418 298.792 141.784 299.891 144.91 297.863C148.037 295.835 148.544 293.3 148.544 293.215C148.628 292.624 149.135 292.201 149.727 292.37C150.234 292.455 150.656 293.046 150.572 293.638C150.572 293.807 149.98 297.187 146.009 299.806C143.727 301.074 141.868 301.243 140.516 301.158Z" fill="#C5DFFF"/>
<path d="M131.475 284.174C129.7 284.005 128.517 283.413 128.433 283.413C127.926 283.16 127.757 282.484 128.01 281.977C128.264 281.47 128.855 281.216 129.278 281.47C129.362 281.554 132.32 282.991 136.207 281.216C140.009 279.526 140.685 277.076 140.685 276.907C140.854 276.315 141.361 275.977 141.868 276.146C142.375 276.315 142.713 276.907 142.544 277.498C142.544 277.667 141.615 281.047 136.883 283.244C134.77 284.174 132.911 284.343 131.475 284.174Z" fill="#C5DFFF"/>
<path d="M125.053 265.161C122.602 264.992 121.335 263.978 121.25 263.894C120.828 263.556 120.743 262.88 121.081 262.373C121.419 261.866 122.011 261.781 122.518 262.204C122.602 262.204 124.461 263.64 128.602 262.795C133.841 261.697 135.277 259.669 135.362 259.584C135.7 259.077 136.291 258.992 136.798 259.33C137.221 259.668 137.305 260.345 136.967 260.852C136.798 261.105 134.939 263.556 129.024 264.908C127.419 265.246 126.151 265.246 125.053 265.161Z" fill="#C5DFFF"/>
<path d="M137.559 251.05C137.559 251.05 132.489 253.669 125.306 253.585C121.757 253.5 119.307 252.824 117.701 252.064C116.011 251.303 115.251 250.543 115.251 250.543C115.251 250.543 115.335 249.022 115.082 244.036C114.237 228.319 121.335 226.291 125.982 226.122C127.081 226.122 128.264 226.291 129.278 226.629C132.658 227.812 135.531 230.854 136.629 234.572C138.066 239.727 137.559 251.05 137.559 251.05Z" fill="#1C3177"/>
<path d="M127.165 235.84C121.842 238.713 119.645 236.854 119.645 236.854C119.645 236.854 118.377 241.163 117.786 249.698C117.701 250.543 117.701 251.388 117.617 252.064C115.927 251.303 115.166 250.543 115.166 250.543C115.166 250.543 115.251 249.022 114.997 244.036C114.152 228.319 121.25 226.291 125.898 226.122C126.996 226.122 128.179 226.291 129.193 226.629C130.545 228.911 132.066 233.22 127.165 235.84Z" fill="#384D89"/>
<path d="M235.072 262.203C234.819 263.555 234.565 264.823 234.227 266.09C232.199 273.949 228.65 280.286 223.665 284.427C209.384 296.341 189.78 302.679 164.599 286.37C144.488 273.357 125.983 243.867 119.307 232.459C117.617 229.586 116.688 227.812 116.688 227.812C116.688 227.812 128.264 227.22 146.516 218.855C154.037 215.39 162.74 210.574 172.289 203.983C188.766 192.491 198.315 181.759 203.807 173.394C210.314 163.592 211.243 157.17 211.243 157.17C211.243 157.17 212.849 160.127 215.637 166.634C219.017 174.661 224.087 188.012 229.833 207.785C236.002 229.079 237.692 247.923 235.072 262.203Z" fill="#E1ECFF"/>
<path d="M215.637 166.634C213.694 170.521 210.99 175.084 207.441 180.069C200.512 189.533 190.203 200.434 174.993 210.236C165.613 216.32 157.248 220.714 149.896 223.925C134.855 230.6 124.462 232.121 119.223 232.375C117.533 229.502 116.603 227.727 116.603 227.727C116.603 227.727 128.18 227.136 146.432 218.77C153.952 215.306 162.656 210.489 172.204 203.898C188.682 192.406 198.23 181.675 203.723 173.309C210.229 163.507 211.159 157.085 211.159 157.085C211.159 157.085 212.933 160.212 215.637 166.634Z" fill="#1C3177"/>
<path d="M234.227 266.09C232.199 273.949 228.65 280.286 223.665 284.427C209.384 296.341 189.78 302.679 164.599 286.37C144.488 273.357 125.983 243.867 119.307 232.459C117.617 229.586 116.688 227.812 116.688 227.812C116.688 227.812 128.264 227.22 146.516 218.855C153.699 230.009 169.585 253.077 185.217 266.682C203.385 282.568 224.087 273.188 234.227 266.09Z" fill="#C5DFFF"/>
<path d="M149.896 224.009C134.855 230.685 124.462 232.206 119.223 232.459C117.533 229.586 116.603 227.812 116.603 227.812C116.603 227.812 128.18 227.22 146.432 218.855C147.446 220.376 148.629 222.15 149.896 224.009Z" fill="#142966"/>
<path d="M232.706 254.007C230.594 245.304 227.721 234.319 224.087 222.658C218.257 203.73 211.666 189.111 208.032 182.774C213.102 175.084 214.032 171.958 214.032 171.958C214.032 171.958 215.299 174.324 217.496 179.394C220.116 185.647 224.087 196.125 228.566 211.588C233.467 228.15 234.819 242.853 232.706 254.007Z" fill="#F8FBFF"/>
<path d="M215.637 166.634C213.694 170.521 210.99 175.084 207.441 180.069C206.089 177.45 204.906 175.168 203.807 173.309C210.314 163.507 211.243 157.085 211.243 157.085C211.243 157.085 212.933 160.212 215.637 166.634Z" fill="#384D89"/>
<path d="M189.188 261.105C189.188 261.105 181.583 266.851 166.12 273.273C161.81 275.047 157.585 276.568 153.783 277.836C153.445 277.498 153.107 277.16 152.769 276.822C141.953 266.428 132.235 252.993 125.644 242.853C125.222 242.261 124.884 241.67 124.546 241.163C125.222 240.994 136.545 238.121 150.318 231.952C164.599 225.615 168.232 222.742 168.232 222.742L189.188 261.105Z" fill="#E1ECFF"/>
<path d="M186.823 261.021C186.823 261.021 179.978 266.513 165.444 272.259C160.966 274.034 156.487 275.555 152.685 276.822C141.869 266.429 132.151 252.993 125.56 242.853L126.912 242.515C126.912 242.515 137.559 239.811 150.741 233.981C163.923 228.066 167.641 226.122 167.641 226.122L186.823 261.021Z" fill="#1C3177"/>
<path d="M149.135 264.316C148.882 264.316 148.544 264.232 148.375 264.063L139.08 255.782L138.488 257.556C138.235 258.148 137.643 258.486 137.052 258.232C136.46 257.979 136.122 257.387 136.376 256.796L137.559 253.416C137.728 253.078 137.981 252.74 138.319 252.655C138.657 252.571 139.08 252.655 139.418 252.909L147.614 260.176L147.192 256.88C147.107 256.373 147.361 255.866 147.868 255.697L175.837 243.614C176.429 243.36 177.105 243.614 177.358 244.205C177.612 244.797 177.358 245.473 176.767 245.726L149.558 257.472L150.318 262.964C150.403 263.471 150.149 263.894 149.727 264.147C149.473 264.232 149.304 264.316 149.135 264.316Z" fill="#FFCE94"/>
<path d="M211.243 157.17C211.243 157.17 209.976 166.211 200.258 178.802C194.681 186.069 186.231 194.519 173.556 203.138C152.769 217.334 136.376 223.333 126.574 225.953C120.152 227.643 116.603 227.812 116.603 227.812C116.603 227.812 95.3936 191.646 98.8581 158.86C99.7876 150.325 102.407 143.227 106.379 137.397C109.252 133.087 112.801 129.538 116.857 126.581C128.602 118.131 144.404 115.173 159.783 117.032C187.837 120.497 211.243 157.17 211.243 157.17Z" fill="#FEC272"/>
<path d="M211.243 157.17C211.243 157.17 210.652 161.226 207.441 167.648C205.835 170.859 203.554 174.661 200.258 178.886C194.681 186.153 186.231 194.603 173.556 203.222C151.164 218.432 133.841 224.263 124.462 226.544C119.392 227.727 116.603 227.896 116.603 227.896C116.603 227.643 116.688 208.208 148.291 183.534C180.063 158.606 211.243 157.17 211.243 157.17Z" fill="#FCAD4F"/>
<path d="M207.44 167.648C205.835 170.859 203.553 174.661 200.258 178.886C194.681 186.153 186.231 194.603 173.556 203.222C151.163 218.432 133.841 224.263 124.461 226.544C128.01 218.432 135.784 206.433 153.276 192.744C174.739 175.929 195.948 169.845 207.44 167.648Z" fill="#F99D3A"/>
<path d="M211.243 157.17C211.243 157.17 209.975 166.211 200.258 178.802C194.85 169.507 190.033 163.676 190.033 163.676C190.033 163.676 177.612 174.915 167.472 166.887C157.332 158.775 164.937 143.903 164.937 143.903C164.937 143.903 154.712 132.918 138.066 129.369C129.785 127.595 122.264 126.834 116.772 126.581C128.517 118.131 144.319 115.173 159.698 117.032C187.836 120.497 211.243 157.17 211.243 157.17Z" fill="#FFDBB3"/>
<path d="M126.659 225.953C120.237 227.643 116.688 227.812 116.688 227.812C116.688 227.812 95.4781 191.646 98.9426 158.86C99.8721 150.325 102.492 143.227 106.463 137.397C105.534 147.114 104.773 169.591 112.547 193.843C116.434 206.18 121.673 217.165 126.659 225.953Z" fill="#FFDBB3"/>
<path d="M223.157 373.152C223.157 373.659 223.157 374.166 223.073 374.757C222.735 379.743 207.44 380.672 196.793 381.179C186.315 381.686 175.246 378.729 179.048 375.264C179.133 375.18 179.133 375.18 179.217 375.095C181.921 372.814 187.16 370.194 192.991 368.082C196.371 366.814 199.835 365.8 203.3 364.955C207.863 363.857 217.158 361.66 220.2 363.941C220.791 364.364 221.298 365.04 221.721 365.8C222.65 367.575 223.157 370.194 223.157 373.152Z" fill="#1C3177"/>
<path d="M223.157 373.152C223.157 373.659 223.157 374.166 223.073 374.757C222.735 379.743 207.44 380.672 196.793 381.179C186.315 381.686 175.246 378.729 179.048 375.264C181.33 376.616 186.315 378.222 196.709 377.799C210.905 377.208 219.524 374.842 223.157 373.152Z" fill="#384D89"/>
<path d="M221.636 365.8C220.96 366.476 219.862 367.152 218.594 367.828C214.538 369.856 202.201 372.053 194.681 370.786C191.385 370.194 191.639 369.18 192.906 368.082C196.286 366.814 199.751 365.8 203.215 364.955C207.778 363.857 217.073 361.66 220.115 363.941C220.707 364.364 221.214 365.04 221.636 365.8Z" fill="#142966"/>
<path d="M202.624 325.24C206.004 346.872 218.341 363.434 218.341 363.434C218.341 363.434 217.158 365.124 214.792 366.645C213.778 367.321 212.595 367.828 211.158 368.335C208.961 369.011 206.595 369.011 204.567 368.842C202.117 368.589 200.342 368.082 200.342 368.082C200.342 368.082 179.302 340.957 176.682 310.03C174.063 279.103 190.709 263.555 190.709 263.555C190.709 263.555 190.878 263.471 191.047 263.302C192.737 262.203 200.173 258.147 209.13 263.217C209.806 263.555 210.398 263.978 210.905 264.316C217.749 268.794 218.763 273.357 218.763 273.357C218.763 273.357 214.116 277.413 210.651 283.497C207.187 289.412 199.244 303.608 202.624 325.24Z" fill="#E1ECFF"/>
<path d="M202.624 325.24C206.004 346.872 218.341 363.434 218.341 363.434C218.341 363.434 217.158 365.124 214.792 366.645C208.623 358.111 193.836 332.254 194.343 307.664C194.765 285.187 206.426 269.555 210.989 264.316C217.834 268.794 218.848 273.357 218.848 273.357C218.848 273.357 214.2 277.413 210.736 283.497C207.187 289.412 199.244 303.608 202.624 325.24Z" fill="#C5DFFF"/>
<path d="M204.483 368.758C202.033 368.505 200.258 367.998 200.258 367.998C200.258 367.998 179.217 340.873 176.598 309.946C173.978 279.019 190.625 263.471 190.625 263.471C190.625 263.471 190.794 263.387 190.963 263.218C187.752 269.809 180.569 286.878 181.245 306.144C182.09 330.902 192.822 349.999 200.343 362.167C201.779 364.618 203.215 366.815 204.483 368.758Z" fill="#F8FBFF"/>
<path d="M188.428 346.788C188.174 346.788 187.836 346.703 187.667 346.45C187.245 346.027 187.16 345.267 187.583 344.844C187.667 344.76 190.118 342.225 195.019 340.704C200.004 339.183 205.497 340.873 205.75 340.957C206.342 341.126 206.68 341.802 206.511 342.394C206.342 342.985 205.666 343.323 205.074 343.154C204.99 343.154 200.004 341.633 195.695 342.901C191.385 344.253 189.273 346.365 189.273 346.45C189.104 346.703 188.766 346.788 188.428 346.788Z" fill="#C5DFFF"/>
<path d="M179.724 319.748C179.302 319.748 178.964 319.579 178.71 319.156C178.372 318.565 178.541 317.889 179.133 317.551C179.302 317.466 184.287 314.593 189.949 314.34C195.695 314.002 200.511 317.297 200.68 317.466C201.187 317.804 201.356 318.565 200.934 319.072C200.596 319.579 199.835 319.748 199.328 319.325C199.244 319.325 195.019 316.368 190.033 316.621C184.879 316.875 180.316 319.494 180.231 319.579C180.147 319.748 179.893 319.748 179.724 319.748Z" fill="#C5DFFF"/>
<path d="M202.877 297.44C202.624 297.44 202.286 297.355 202.117 297.102C202.032 297.017 195.779 291.356 189.526 290.595C183.442 289.835 179.724 292.454 179.724 292.539C179.217 292.877 178.457 292.792 178.119 292.285C177.781 291.778 177.865 291.018 178.372 290.68C178.541 290.511 182.851 287.384 189.864 288.314C196.793 289.243 203.384 295.158 203.722 295.412C204.229 295.834 204.229 296.595 203.807 297.017C203.469 297.271 203.131 297.44 202.877 297.44Z" fill="#C5DFFF"/>
<path d="M276.646 273.442C276.646 273.442 275.04 278.934 269.97 282.23C264.9 285.525 262.027 285.863 262.027 285.863C262.027 285.863 258.732 285.356 258.732 283.244C258.732 283.159 258.732 283.075 258.732 282.99C258.901 280.709 260.506 278.681 260.506 278.681C260.506 278.681 264.816 277.92 267.182 276.737C269.548 275.554 272.083 271.752 273.942 271.329C274.871 271.16 275.463 271.583 275.97 272.174C276.477 272.766 276.646 273.442 276.646 273.442Z" fill="#E1ECFF"/>
<path d="M276.646 273.442C276.646 273.442 275.04 278.934 269.97 282.23C264.9 285.525 262.027 285.863 262.027 285.863C262.027 285.863 258.732 285.356 258.732 283.244C261.013 283.075 266.421 282.399 270.224 279.357C273.35 276.906 275.125 273.949 275.97 272.09C276.477 272.766 276.646 273.442 276.646 273.442Z" fill="#C5DFFF"/>
<path d="M273.519 273.019C270.477 277.16 267.013 278.765 264.14 279.779C261.267 280.793 259.323 280.371 259.323 280.371C259.323 280.371 257.802 278.934 258.056 277.16C258.14 276.146 258.816 275.047 260.591 274.033C260.591 274.033 265.407 273.442 268.449 267.527C271.491 261.612 270.224 261.02 270.984 259.837C271.491 258.992 273.35 259.077 274.618 259.837C275.209 260.175 275.716 260.767 275.885 261.443C276.646 263.555 276.561 268.879 273.519 273.019Z" fill="#E1ECFF"/>
<path d="M273.519 273.019C270.477 277.16 267.013 278.765 264.14 279.779C261.267 280.793 259.323 280.371 259.323 280.371C259.323 280.371 257.802 278.934 258.056 277.16C261.182 276.991 267.604 276.146 270.731 271.498C273.857 266.935 274.533 262.119 274.618 259.837C275.209 260.175 275.716 260.767 275.885 261.443C276.646 263.555 276.561 268.879 273.519 273.019Z" fill="#C5DFFF"/>
<path d="M267.858 270.4C264.985 274.287 261.689 275.892 258.901 276.822C256.197 277.751 254.338 277.329 254.338 277.329C254.338 277.329 252.901 275.977 253.155 274.287C253.239 273.357 253.915 272.259 255.605 271.329C255.605 271.329 260.168 270.822 263.041 265.161C265.914 259.584 264.731 258.992 265.407 257.809C265.914 257.049 267.604 257.049 268.872 257.809C269.463 258.147 269.886 258.654 270.139 259.33C270.815 261.443 270.731 266.513 267.858 270.4Z" fill="#E1ECFF"/>
<path d="M267.858 270.4C264.985 274.287 261.689 275.892 258.901 276.822C256.197 277.751 254.338 277.329 254.338 277.329C254.338 277.329 252.901 275.977 253.155 274.287C256.113 274.118 262.196 273.357 265.239 268.963C268.196 264.654 268.788 260.091 268.957 257.894C269.548 258.232 269.971 258.739 270.224 259.415C270.816 261.443 270.731 266.513 267.858 270.4Z" fill="#C5DFFF"/>
<path d="M265.576 277.92C265.661 280.371 265.069 282.399 264.393 283.92C263.464 285.863 262.45 286.877 262.45 286.877C262.45 286.877 241.071 294.398 218.594 275.639C207.018 266.006 197.723 253.415 191.47 243.529C185.555 234.149 182.259 227.136 182.259 227.136C182.259 227.136 180.485 221.643 183.78 216.911C184.794 215.39 186.315 213.954 188.681 212.771C192.653 210.743 195.948 210.574 198.568 211.25C202.962 212.348 205.412 215.644 205.412 215.644C205.412 215.644 208.708 222.911 213.609 231.868C219.355 242.261 227.298 254.936 234.903 260.851C249.014 271.836 260.76 267.611 260.76 267.611C260.76 267.611 262.027 268.879 263.295 270.822C264.224 272.597 265.492 275.132 265.576 277.92Z" fill="#E1ECFF"/>
<path d="M213.356 231.699C211.581 234.487 208.117 238.628 201.695 240.994C197.554 242.599 193.921 243.191 191.301 243.444C185.386 234.065 182.091 227.051 182.091 227.051C182.091 227.051 179.049 217.503 188.428 212.602C198.991 207.109 205.159 215.475 205.159 215.475C205.159 215.475 208.455 222.826 213.356 231.699Z" fill="#C5DFFF"/>
<path d="M264.309 283.835C263.379 285.779 262.365 286.793 262.365 286.793C262.365 286.793 240.987 294.313 218.51 275.554C206.933 265.921 197.638 253.331 191.385 243.444C185.47 234.065 182.175 227.051 182.175 227.051C182.175 227.051 180.4 221.559 183.696 216.827C186.484 223.164 198.399 249.021 213.524 263.893C230.847 280.878 240.226 282.99 256.873 283.666C259.577 283.751 262.112 283.835 264.309 283.835Z" fill="#C5DFFF"/>
<path d="M263.041 270.738C258.732 272.005 252.732 272.935 246.479 270.991C234.818 267.358 225.27 260.006 215.89 245.895C208.201 234.234 200.765 216.996 198.399 211.165C202.793 212.264 205.243 215.559 205.243 215.559C205.243 215.559 208.539 222.826 213.44 231.783C219.186 242.177 227.129 254.852 234.734 260.767C248.845 271.752 260.591 267.527 260.591 267.527C260.591 267.527 261.774 268.71 263.041 270.738Z" fill="#F8FBFF"/>
<path d="M204.483 257.471C202.371 257.471 201.019 256.964 200.934 256.964C200.343 256.711 200.005 256.035 200.258 255.443C200.512 254.852 201.188 254.514 201.779 254.767C201.948 254.852 205.92 256.204 211.243 253.331C216.567 250.373 217.834 245.134 217.834 245.134C218.003 244.543 218.595 244.12 219.186 244.289C219.778 244.458 220.2 245.05 220.031 245.641C219.947 245.895 218.595 251.894 212.257 255.359C209.3 257.049 206.511 257.471 204.483 257.471Z" fill="#C5DFFF"/>
<path d="M220.622 276.399C219.946 276.399 219.439 275.892 219.439 275.216C219.439 274.54 219.946 274.033 220.622 274.033C220.707 274.033 225.946 273.949 228.903 270.315C231.945 266.597 231.354 261.358 231.354 261.274C231.269 260.598 231.776 260.091 232.368 260.006C232.959 259.922 233.551 260.429 233.635 261.02C233.635 261.274 234.311 267.273 230.678 271.752C227.044 276.399 220.876 276.399 220.622 276.399Z" fill="#C5DFFF"/>
<path d="M239.212 286.286C238.79 286.286 238.283 286.032 238.114 285.525C237.86 284.934 238.198 284.258 238.79 284.004C238.874 284.004 243.606 282.061 244.874 276.906C246.141 271.667 244.367 268.625 244.282 268.541C243.944 268.034 244.113 267.273 244.62 266.935C245.127 266.597 245.888 266.766 246.226 267.273C246.31 267.442 248.676 271.245 247.071 277.413C245.465 283.751 239.804 286.032 239.55 286.117C239.466 286.286 239.381 286.286 239.212 286.286Z" fill="#C5DFFF"/>
<path d="M214.031 221.559C214.031 221.559 213.862 222.573 213.271 224.094C212.088 226.967 209.299 231.699 202.962 235.839C193.16 242.177 184.456 239.473 184.456 239.473C184.456 239.473 178.203 231.276 176.936 219.953C176.175 213.447 180.485 208.377 186.062 205.926C190.202 204.152 195.019 203.814 198.906 205.504C208.116 209.644 214.031 221.559 214.031 221.559Z" fill="#1C3177"/>
<path d="M214.032 221.559C214.032 221.559 213.863 222.573 213.271 224.094C213.271 224.009 213.187 224.009 213.187 223.925C205.328 213.531 199.16 211.419 199.16 211.419C199.16 211.419 196.878 216.827 189.358 213.7C184.119 211.588 185.048 207.87 186.147 205.926C190.287 204.152 195.104 203.814 198.991 205.504C208.117 209.644 214.032 221.559 214.032 221.559Z" fill="#384D89"/>
<path d="M111.364 176.858C109.758 176.605 108.237 177.619 107.899 179.14C107.139 182.351 105.956 187.843 105.449 192.068C105.026 195.617 104.857 198.575 104.773 200.603C104.688 202.039 105.787 203.391 107.223 203.645C108.913 203.898 110.434 202.715 110.603 201.025C110.772 198.406 111.195 194.434 112.124 189.871C112.969 185.562 113.561 182.52 113.983 180.492C114.237 178.802 113.054 177.196 111.364 176.858Z" fill="#1C3177"/>
<path d="M96.7453 185.9C97.1678 184.21 98.9423 183.28 100.548 184.041C103.083 185.139 106.801 186.745 110.35 188.012C113.983 189.28 117.363 190.547 119.476 191.392C120.912 191.899 121.673 193.42 121.335 194.941C120.912 196.547 119.222 197.561 117.617 197.054C114.828 196.293 110.434 194.857 105.787 192.913C101.646 191.139 99.2803 189.787 97.8438 188.942C96.9143 188.266 96.4918 187.083 96.7453 185.9Z" fill="#1C3177"/>
<path d="M147.699 156.24C145.671 155.902 143.728 157.254 143.221 159.282C142.291 163.507 140.939 170.605 140.348 176.182C139.925 180.83 139.672 184.632 139.672 187.252C139.587 189.195 141.024 190.801 142.883 191.055C145.08 191.392 147.023 189.787 147.192 187.59C147.361 184.21 147.868 179.055 148.798 173.14C149.727 167.479 150.488 163.507 150.91 160.888C151.417 158.691 149.896 156.578 147.699 156.24Z" fill="#1C3177"/>
<path d="M128.94 168.408C129.447 166.211 131.813 165.028 133.841 165.873C137.137 167.225 141.953 169.169 146.601 170.774C151.333 172.38 155.727 173.901 158.515 174.915C160.374 175.591 161.473 177.534 160.966 179.478C160.459 181.59 158.262 182.942 156.149 182.351C152.516 181.421 146.854 179.731 140.77 177.281C135.362 175.084 132.236 173.394 130.461 172.295C129.278 171.366 128.602 169.845 128.94 168.408Z" fill="#1C3177"/>
<path d="M433.731 317.72C433.731 317.72 438.041 318.987 441.167 322.621C444.294 326.339 444.716 332.339 444.716 332.339L461.785 324.396C461.785 324.396 453.166 327.691 450.293 321.945C447.42 316.199 456.969 307.073 456.969 307.073C456.969 307.073 446.406 315.692 442.266 314.425C438.125 313.157 437.449 308.003 437.449 308.003L433.731 317.72Z" fill="#FEC272"/>
<path d="M417.592 315.776L420.634 315.861L425.366 281.216L414.634 279.188L417.592 315.776Z" fill="#D2E9FF"/>
<path d="M425.028 315.946L432.126 283.498L442.35 288.483L426.887 316.791L425.028 315.946Z" fill="#D2E9FF"/>
<path d="M86.8593 152.185L85.0848 156.072L47.9893 144.664L52.9748 130.046L86.8593 152.185Z" fill="#FEC272"/>
<path d="M92.436 139.341L89.1405 144.073L47.2285 112.132L58.805 100.048L92.436 139.341Z" fill="#FEC272"/>
</svg>
