<svg

version="1.2" xmlns="http://www.w3.org/2000/svg" viewBox="0 0 24 24">
	<style>
		.s0 { fill: none;stroke: #000000;stroke-linecap: round;stroke-linejoin: round;stroke-width: 16 }
	</style>
	<g id="OBJECTS">
		<g id="&lt;Group&gt;">
			<g id="&lt;Group&gt;">
			</g>
			<g id="&lt;Group&gt;">
			</g>
			<g id="&lt;Group&gt;">
				<path id="&lt;Path&gt;" class="s0" d="m419.8 431.2v55.2c0 47.7-38.9 86.6-86.6 86.6-8 0-15.7-1.1-23.1-3.1"/>
				<path id="&lt;Path&gt;" class="s0" d="m432.2 263.3c9.4-13.4 23.5-23.6 40.5-27.9l2.2-0.6"/>
				<path id="&lt;Path&gt;" class="s0" d="m456.5 450.7v35.7c0 64.5-51.2 117.2-115 119.8"/>
				<path id="&lt;Path&gt;" class="s0" d="m493.1 457.7v28.7c0 71.2-48.8 131.2-114.7 148.4"/>
				<path id="&lt;Path&gt;" class="s0" d="m708.9 472.1v14.3c0 29.4-23.9 53.2-53.3 53.2-29.4 0-53.2-23.8-53.2-53.2v-183.6c0-57.5-46.7-104.2-104.2-104.2h-10.9c-57.6 0-104.2 46.7-104.2 104.2v183.6c0 29.4-23.9 53.2-53.3 53.2-29.4 0-53.2-23.8-53.2-53.2v-14.3"/>
				<path id="&lt;Path&gt;" class="s0" d="m565.7 431.2v55.2c0 47.7 38.9 86.6 86.6 86.6 8 0 15.7-1.1 23.1-3.1"/>
				<path id="&lt;Path&gt;" class="s0" d="m529 450.7v35.7c0 64.5 51.1 117.2 115 119.8"/>
				<path id="&lt;Path&gt;" class="s0" d="m492.3 457.7v28.7c0 71.2 48.8 131.2 114.7 148.4"/>
				<path id="&lt;Path&gt;" class="s0" d="m461 357.9c0 6.2-5 11.2-11.2 11.2-6.2 0-11.3-5-11.3-11.2 0-6.3 5.1-11.3 11.3-11.3 6.2 0 11.2 5 11.2 11.3z"/>
				<path id="&lt;Path&gt;" class="s0" d="m524.4 357.9c0 6.2 5.1 11.2 11.3 11.2 6.2 0 11.2-5 11.2-11.2 0-6.3-5-11.3-11.2-11.3-6.2 0-11.3 5-11.3 11.3z"/>
			</g>
		</g>
	</g>
</svg>
